<?xml version="1.0" encoding="iso-8859-1"?>
<!-- Generator: Adobe Illustrator 19.0.0, SVG Export Plug-In . SVG Version: 6.00 Build 0)  -->
<svg version="1.1" id="Layer_1" xmlns="http://www.w3.org/2000/svg" xmlns:xlink="http://www.w3.org/1999/xlink" x="0px" y="0px"
	 viewBox="0 0 490 490" style="enable-background:new 0 0 490 490;" xml:space="preserve">
<g>
	<g id="XMLID_48_">
		<g>
			<rect x="430" y="380" style="fill:#E6E6E6;" width="50" height="70"/>
			<polygon style="fill:#E6E6E6;" points="455,40 480,100 430,100 			"/>
			<rect x="430" y="100" style="fill:#FFD248;" width="50" height="280"/>
			<rect x="10" y="100" style="fill:#F4661E;" width="370" height="161.66"/>
			<path style="fill:#CCCCCC;" d="M380,261.66V450c0,16.57-13.43,30-30,30H10V261.66H380z"/>
			<path style="fill:#CCCCCC;" d="M380,40v60H10V10h340C366.57,10,380,23.44,380,40z"/>
		</g>
		<g>
			<path d="M350,0H10C4.477,0,0,4.477,0,10v90v161.66V480c0,5.522,4.477,10,10,10h340c22.056,0,40-17.944,40-40V261.66V100V40
				C390,17.944,372.056,0,350,0z M350,20c11.028,0,20,8.972,20,20v50H20V20H350z M370,110v141.66H20V110H370z M350,470H20V271.66
				h350V450C370,461.028,361.028,470,350,470z"/>
			<rect x="50" y="385" width="60" height="20"/>
			<rect x="50" y="420" width="80" height="20"/>
			<path d="M489.988,100c0-1.302-0.242-2.609-0.757-3.846l-25-60C462.678,32.428,459.037,30,455,30s-7.678,2.428-9.231,6.154l-25,60
				c-0.515,1.236-0.757,2.544-0.757,3.846H420v280v70c0,5.522,4.477,10,10,10h50c5.523,0,10-4.478,10-10v-70V100H489.988z M440,110
				h30v260h-30V110z M455,66l10,24h-20L455,66z M470,440h-30v-50h30V440z"/>
			<rect x="290" y="420" width="20" height="20"/>
			<rect x="320" y="420" width="20" height="20"/>
		</g>
	</g>
</g>
<g>
</g>
<g>
</g>
<g>
</g>
<g>
</g>
<g>
</g>
<g>
</g>
<g>
</g>
<g>
</g>
<g>
</g>
<g>
</g>
<g>
</g>
<g>
</g>
<g>
</g>
<g>
</g>
<g>
</g>
</svg>
